<svg id="Группа_1" data-name="Группа 1" xmlns="http://www.w3.org/2000/svg" width="200" height="200" viewBox="0 0 200 200">
  <defs>
    <style>
      .cls-1 {
        fill: #fff;
        stroke-width: 5px;
      }

      .cls-1, .cls-2 {
        stroke: #fff;
        stroke-linecap: round;
        stroke-linejoin: round;
        fill-rule: evenodd;
      }

      .cls-2 {
        fill: none;
        stroke-width: 10px;
      }
    </style>
  </defs>
  <path id="Фигура_2_копия_3" data-name="Фигура 2 копия 3" class="cls-1" d="M104.408,68.368l0.707-.707L133.4,95.945l-0.707.707Zm4.243-25.456,0.707-.707L158.148,91l-0.707.707Zm13.435-16.263,0.707-.707L174.412,77.56l-0.707.707ZM69.053,103.723l-0.707.707L96.63,132.715l0.707-.707ZM43.6,107.966l-0.707.707,48.79,48.79,0.707-.707ZM27.334,121.4l-0.707.707,51.619,51.619,0.707-.707Z"/>
  <path id="Фигура_1" data-name="Фигура 1" class="cls-2" d="M112.894,16.042S74.533,42.122,101.58,92.41s-14.142,91.924-14.142,91.924"/>
  <path id="Фигура_1_копия" data-name="Фигура 1 копия" class="cls-2" d="M183.96,87.108s-26.11,38.33-76.208,11.474S16.02,112.916,16.02,112.916"/>
</svg>
