<svg id="Группа_1" data-name="Группа 1" xmlns="http://www.w3.org/2000/svg" width="200" height="200" viewBox="0 0 200 200">
  <defs>
    <style>
      .cls-1, .cls-2 {
        fill: none;
        stroke: #fff;
        stroke-linejoin: round;
        stroke-width: 5px;
        fill-rule: evenodd;
      }

      .cls-1 {
        opacity: 0.98;
      }
    </style>
  </defs>
  <path id="Фигура_3_копия" data-name="Фигура 3 копия" class="cls-1" d="M137.1,171.448c-8.646,4.768-17.007,7.638-37.117,7.626-20.091.012-28.445-2.858-37.082-7.626-8.759-4.835-5.015-18.516-5.015-18.516S81.1,66.21,82.956,60.133a56.69,56.69,0,0,0,2.18-11.981V29.418c-5.008-8.852,4.142-8.5,4.142-8.5h21.414s9.159-.356,4.146,8.5V48.152a56.631,56.631,0,0,0,2.183,11.981c1.862,6.077,25.1,92.8,25.1,92.8S145.864,166.613,137.1,171.448Z"/>
  <path id="Фигура_3_копия_9" data-name="Фигура 3 копия 9" class="cls-2" d="M89.039,100.384v-0.337h21.706v0.337H89.039ZM85.626,112.4v-0.372h28.749V112.4H85.626ZM83.88,123.5v-0.385h32.894V123.5H83.88Z"/>
</svg>
