<svg xmlns="http://www.w3.org/2000/svg" width="696" height="697" viewBox="0 0 696 697">
  <defs>
    <style>
      .cls-1 {
        fill: #fff;
        stroke: #fff;
        stroke-width: 5px;
        fill-rule: evenodd;
      }
    </style>
  </defs>
  <path id="Эллипс_1" data-name="Эллипс 1" class="cls-1" d="M445.72,184v97s-0.023,8-8.973,8H255c-8.977,0-9-8-9-8V184s-0.289-1.992,4-10,18.691-20.273,32-29,36-14,36-14c9.307,0.967,13.2,6.926,13,16s-5,10.633-25,19a84.964,84.964,0,0,0-31,22v72H416.807V188A84.737,84.737,0,0,0,385.9,166c-19.941-8.367-24.727-9.926-24.925-19s3.681-15.033,12.961-16c0,0,22.622,5.273,35.891,14s27.627,20.992,31.9,29S445.72,184,445.72,184ZM344.5,2A57.5,57.5,0,1,1,287,59.5,57.5,57.5,0,0,1,344.5,2Z"/>
  <path id="Эллипс_1_копия" data-name="Эллипс 1 копия" class="cls-1" d="M685.72,584v97s-0.023,8-8.973,8H495c-8.977,0-9-8-9-8V584s-0.289-1.992,4-10,18.691-20.273,32-29,36-14,36-14c9.307,0.967,13.2,6.926,13,16s-5,10.633-25,19a84.964,84.964,0,0,0-31,22v72H656.807V588A84.737,84.737,0,0,0,625.9,566c-19.941-8.367-24.727-9.926-24.925-19s3.681-15.033,12.961-16c0,0,22.622,5.273,35.891,14s27.627,20.992,31.9,29S685.72,584,685.72,584ZM584.5,402A57.5,57.5,0,1,1,527,459.5,57.5,57.5,0,0,1,584.5,402Z"/>
  <path id="Эллипс_1_копия_2" data-name="Эллипс 1 копия 2" class="cls-1" d="M199.72,584v97s-0.023,8-8.973,8H9c-8.977,0-9-8-9-8V584s-0.289-1.992,4-10,18.691-20.273,32-29,36-14,36-14c9.307,0.967,13.2,6.926,13,16s-5,10.633-25,19a84.968,84.968,0,0,0-31,22v72H170.807V588A84.737,84.737,0,0,0,139.9,566c-19.941-8.367-24.727-9.926-24.925-19s3.681-15.033,12.961-16c0,0,22.622,5.273,35.891,14s27.627,20.992,31.9,29S199.72,584,199.72,584ZM98.5,402A57.5,57.5,0,1,1,41,459.5,57.5,57.5,0,0,1,98.5,402Z"/>
  <path id="Фигура_2" data-name="Фигура 2" class="cls-1" d="M490,224s35.536,17.127,66,70,30,81,30,81-0.228,16-13,16-16-16-16-16-10.771-51.146-35-80-46-51-46-51S471.321,228.291,490,224Z"/>
  <path id="Фигура_2_копия" data-name="Фигура 2 копия" class="cls-1" d="M437.3,639.92s-32.6,22.211-93.621,22.158-85.148-14.52-85.148-14.52-13.743-8.2-7.357-19.258,21.857-5.856,21.857-5.856,49.678,16.245,86.782,9.689S426.977,617.8,426.977,617.8,442.921,621.6,437.3,639.92Z"/>
  <path id="Фигура_2_копия_2" data-name="Фигура 2 копия 2" class="cls-1" d="M109,389s-2.59-39.026,27.967-91.845,55.148-66.481,55.148-66.481,13.97-7.8,20.356,3.258-5.856,21.857-5.856,21.857-38.908,34.9-51.782,70.311-21.167,65.337-21.167,65.337S122.056,403.031,109,389Z"/>
</svg>
