<svg id="Группа_1" data-name="Группа 1" xmlns="http://www.w3.org/2000/svg" width="1800" height="1500" viewBox="0 0 1800 1500">
  <defs>
    <style>
      .cls-1 {
        fill: #ff8f4a;
      }

      .cls-1, .cls-2, .cls-3 {
        fill-rule: evenodd;
      }

      .cls-2 {
        fill: none;
        stroke: #fff;
        stroke-width: 15px;
      }

      .cls-3 {
        fill: #fff;
      }
    </style>
  </defs>
  <path id="Фигура_2" data-name="Фигура 2" class="cls-1" d="M1018.33,176.9L747.485,649.5H1785l-50.29,244.74L1298.89,1500l-1346.3-5.63L-58,617.622l8.822-75.017L818.065,178.777Z"/>
  <path id="Эллипс_1_копия_2" data-name="Эллипс 1 копия 2" class="cls-2" d="M1520.44,390.308c-39.76-17.857-85.04-34.589-134.14-49.185-14.13-33.349-29.02-64.748-44.29-93.641,118.57-84.969,220.93-120.28,253.34-79.867a42.533,42.533,0,0,1,6.91,12.674C1624.7,218.048,1591.05,298.541,1520.44,390.308ZM1116.7,288.8c-24.92-122.387-17.75-213.3,25.16-228.9a38.654,38.654,0,0,1,9.01-2.071c0.4-.162.79-0.347,1.2-0.5,47.18-17.15,122.19,61.9,189.94,190.141-26.02,18.651-52.82,39.7-79.84,62.858C1210.44,299.167,1161.2,292.012,1116.7,288.8Zm-47.34,217.4c-113.143-50.52-182.284-110.169-169.506-155.8a42.948,42.948,0,0,1,6.259-13.029c17.419-39.973,99.217-56.6,210.587-48.572a1141.285,1141.285,0,0,0,33.37,124.838A1094.557,1094.557,0,0,0,1069.36,506.205Zm180.53,144.354c-118.9,85.389-221.66,120.95-254.15,80.444a41.167,41.167,0,0,1-5-8.01c-0.287-.333-0.591-0.649-0.867-0.993-28.582-35.631,5.237-119.6,79.485-215.795,40.1,17.9,85.72,34.656,135.18,49.235C1219.01,589.4,1234.27,621.293,1249.89,650.559Zm222-41.219c24.33,121.154,16.98,210.963-25.65,226.458a39.855,39.855,0,0,1-13.9,2.308c-46.85,9.66-117.77-66.4-182.45-187.547,25.75-18.489,52.25-39.312,78.97-62.209C1379.7,599.221,1428.08,606.185,1471.89,609.34Zm48.55-219.032c112.14,50.36,180.51,109.645,167.8,155.049a42.027,42.027,0,0,1-3.6,8.774c-0.11.432-.19,0.869-0.31,1.3-12.27,43.813-96.27,62.277-212.44,53.911a1133.213,1133.213,0,0,0-33.17-125.175A1091.336,1091.336,0,0,0,1520.44,390.308Zm-93.82,58.227q6.39,17.983,12.1,35.63-14.655,15.091-30.29,30.174-16.53,16.654-34.1,33.185-22.74,21.363-45.47,40.826c-22.55-4.821-45.58-10.406-68.91-16.767q-22.155-6.04-43.46-12.679-6.015-1.707-11.95-3.464-4.365-10.246-8.63-20.727-9.42-21.775-18.35-44.516c-10.17-25.924-19.34-51.526-27.49-76.556,20.46-21.081,42.4-42.2,65.62-63.033q17.3-15.513,34.6-29.972,5.955-5.222,11.88-10.3,10.155,2.195,20.43,4.587,22.635,4.74,45.75,10.438,29.73,7.351,57.95,15.758,13.005,30.719,25.06,63.517Q1419.475,426.768,1426.62,448.535Z"/>
  <path id="Эллипс_2" data-name="Эллипс 2" class="cls-3" d="M1275.15,398.845c25.08-9.118,52.64,4.684,61.55,30.828s-4.2,54.73-29.28,63.848-52.65-4.684-61.56-30.828S1250.06,407.964,1275.15,398.845Z"/>
  <path id="Эллипс_3" data-name="Эллипс 3" class="cls-3" d="M1542.77,580.763a29.415,29.415,0,0,1,37.95,18.421,30.883,30.883,0,0,1-18.41,38.906,29.414,29.414,0,0,1-37.95-18.421A30.883,30.883,0,0,1,1542.77,580.763Zm0,0a29.415,29.415,0,0,1,37.95,18.421,30.883,30.883,0,0,1-18.41,38.906,29.414,29.414,0,0,1-37.95-18.421A30.883,30.883,0,0,1,1542.77,580.763Z"/>
  <path id="Эллипс_3_копия" data-name="Эллипс 3 копия" class="cls-3" d="M1542.77,580.763a29.415,29.415,0,0,1,37.95,18.421,30.883,30.883,0,0,1-18.41,38.906,29.414,29.414,0,0,1-37.95-18.421A30.883,30.883,0,0,1,1542.77,580.763Zm-404.59,94.348a29.414,29.414,0,0,1,37.95,18.421,30.883,30.883,0,0,1-18.41,38.906,29.415,29.415,0,0,1-37.95-18.422A30.882,30.882,0,0,1,1138.18,675.111Z"/>
  <path id="Эллипс_3_копия_2" data-name="Эллипс 3 копия 2" class="cls-3" d="M1266.44,130.626a29.414,29.414,0,0,1,37.95,18.421,30.883,30.883,0,0,1-18.41,38.906,29.415,29.415,0,0,1-37.95-18.422A30.865,30.865,0,0,1,1266.44,130.626Z"/>
</svg>
