<svg id="Группа_1" data-name="Группа 1" xmlns="http://www.w3.org/2000/svg" width="200" height="200" viewBox="0 0 200 200">
  <defs>
    <style>
      .cls-1 {
        fill: none;
        stroke: #fff;
        stroke-width: 5px;
      }

      .cls-1, .cls-2 {
        fill-rule: evenodd;
      }

      .cls-2 {
        fill: #fff;
      }
    </style>
  </defs>
  <path id="Эллипс_1_копия_2" data-name="Эллипс 1 копия 2" class="cls-1" d="M153.576,85.995a258.859,258.859,0,0,0-32.038-11.734c-3.373-7.956-6.93-15.447-10.576-22.34,28.317-20.271,52.763-28.7,60.506-19.054a10.205,10.205,0,0,1,1.65,3.024C178.478,44.9,170.439,64.1,153.576,85.995ZM57.149,61.779C51.2,32.581,52.911,10.892,63.16,7.171a9.24,9.24,0,0,1,2.151-.494c0.1-.039.19-0.083,0.287-0.118,11.269-4.091,29.183,14.767,45.364,45.362-6.215,4.449-12.616,9.471-19.069,15A252.552,252.552,0,0,0,57.149,61.779Zm-11.3,51.866C18.822,101.592,2.309,87.362,5.361,76.475a10.244,10.244,0,0,1,1.495-3.108c4.16-9.536,23.7-13.5,50.294-11.588a272.072,272.072,0,0,0,7.97,29.783A260.939,260.939,0,0,0,45.845,113.645Zm43.116,34.438c-28.4,20.372-52.94,28.855-60.7,19.192a9.823,9.823,0,0,1-1.194-1.911c-0.068-.08-0.141-0.155-0.207-0.237-6.826-8.5,1.251-28.534,18.985-51.482A260.535,260.535,0,0,0,78.13,125.391C81.585,133.492,85.23,141.1,88.961,148.083Zm53.021-9.833c5.81,28.9,4.054,50.329-6.127,54.026a9.542,9.542,0,0,1-3.321.551c-11.188,2.3-28.126-15.842-43.573-44.744,6.149-4.411,12.479-9.378,18.859-14.841A251.7,251.7,0,0,0,141.982,138.25Zm11.594-52.255c26.783,12.014,43.112,26.158,40.076,36.99a9.978,9.978,0,0,1-.861,2.093c-0.025.1-.044,0.208-0.073,0.31-2.93,10.452-22.992,14.857-50.736,12.862a270.564,270.564,0,0,0-7.924-29.863A260.451,260.451,0,0,0,153.576,85.995ZM131.169,99.886q1.524,4.29,2.889,8.5-3.5,3.6-7.234,7.2-3.948,3.974-8.143,7.917-5.43,5.1-10.861,9.74c-5.385-1.15-10.885-2.483-16.457-4q-5.291-1.441-10.38-3.025-1.436-.408-2.853-0.826-1.043-2.445-2.062-4.945-2.248-5.2-4.383-10.62c-2.429-6.185-4.617-12.293-6.565-18.265,4.887-5.029,10.126-10.068,15.673-15.038q4.131-3.7,8.264-7.151,1.42-1.245,2.837-2.456,2.426,0.524,4.88,1.094,5.405,1.131,10.927,2.49,7.1,1.754,13.838,3.759,3.108,7.329,5.986,15.153Q129.462,94.693,131.169,99.886Z"/>
  <path id="Эллипс_2" data-name="Эллипс 2" class="cls-2" d="M95.5,87.145a12.169,12.169,0,0,1,15.6,7.813,12.774,12.774,0,0,1-7.422,16.182,12.168,12.168,0,0,1-15.6-7.813A12.774,12.774,0,0,1,95.5,87.145Z"/>
  <path id="Эллипс_3" data-name="Эллипс 3" class="cls-2" d="M163.325,133.251a7.452,7.452,0,0,1,9.617,4.668,7.825,7.825,0,0,1-4.665,9.861,7.455,7.455,0,0,1-9.618-4.669A7.825,7.825,0,0,1,163.325,133.251Zm0,0a7.452,7.452,0,0,1,9.617,4.668,7.825,7.825,0,0,1-4.665,9.861,7.455,7.455,0,0,1-9.618-4.669A7.825,7.825,0,0,1,163.325,133.251Z"/>
  <path id="Эллипс_3_копия" data-name="Эллипс 3 копия" class="cls-2" d="M163.325,133.251a7.452,7.452,0,0,1,9.617,4.668,7.825,7.825,0,0,1-4.665,9.861,7.455,7.455,0,0,1-9.618-4.669A7.825,7.825,0,0,1,163.325,133.251ZM60.785,157.162a7.455,7.455,0,0,1,9.618,4.669,7.824,7.824,0,0,1-4.665,9.86,7.453,7.453,0,0,1-9.618-4.668A7.825,7.825,0,0,1,60.785,157.162Z"/>
  <path id="Эллипс_3_копия_2" data-name="Эллипс 3 копия 2" class="cls-2" d="M93.29,19.167a7.454,7.454,0,0,1,9.618,4.669,7.824,7.824,0,0,1-4.665,9.86,7.454,7.454,0,0,1-9.618-4.669A7.825,7.825,0,0,1,93.29,19.167Z"/>
</svg>
