<svg id="Группа_1" data-name="Группа 1" xmlns="http://www.w3.org/2000/svg" width="2100" height="1500" viewBox="0 0 2100 1500">
  <defs>
    <style>
      .cls-1 {
        fill: #03e084;
      }

      .cls-1, .cls-2, .cls-3 {
        fill-rule: evenodd;
      }

      .cls-2, .cls-3 {
        fill: none;
        stroke: #fff;
        stroke-linejoin: round;
      }

      .cls-2 {
        stroke-width: 18px;
        opacity: 0.98;
      }

      .cls-3 {
        stroke-width: 15px;
      }
    </style>
  </defs>
  <path id="Фигура_2" data-name="Фигура 2" class="cls-1" d="M1152,185L845,689H2021l-57,261-494,646-1526-6L-68,655l10-80L925,187Z"/>
  <path id="Фигура_3_копия" data-name="Фигура 3 копия" class="cls-2" d="M1528.24,848.647c-46.9,25.867-92.26,41.437-201.35,41.37-108.99.067-154.3-15.5-201.16-41.37-47.51-26.231-27.2-100.445-27.2-100.445s125.92-470.439,136.01-503.4,11.83-64.994,11.83-64.994V78.177c-27.17-48.02,22.47-46.086,22.47-46.086H1385s49.69-1.933,22.49,46.086V179.8s1.74,32.028,11.84,64.994S1555.47,748.2,1555.47,748.2,1575.8,822.416,1528.24,848.647Z"/>
  <path id="Фигура_3_копия_9" data-name="Фигура 3 копия 9" class="cls-3" d="M1267.54,463.143v-1.826h117.74v1.826H1267.54Zm-18.52,65.188v-2.022h155.96v2.022H1249.02Zm-9.47,60.207v-2.087h178.44v2.087H1239.55Z"/>
</svg>
