<svg xmlns="http://www.w3.org/2000/svg" width="200" height="200" viewBox="0 0 200 200">
  <defs>
    <style>
      .cls-1 {
        fill: #fff;
        fill-rule: evenodd;
      }
    </style>
  </defs>
  <path id="Фигура_3_копия" data-name="Фигура 3 копия" class="cls-1" d="M192.678,139.145H105.792v24.013s50.233,1.271,62.77,4.276l3.634,5.592L162.615,175s-10.967-3.487-62.6-3.931c-51.638.444-62.6,3.931-62.6,3.931l-9.581-1.974,3.634-5.592c12.536-3,62.77-4.276,62.77-4.276V139.145H7.342a1.273,1.273,0,0,1-1.321-1.316V25.987A1.008,1.008,0,0,1,7.012,25h186a1.008,1.008,0,0,1,.991.987V137.829A1.274,1.274,0,0,1,192.678,139.145Zm-1.651-107.9a3.3,3.3,0,0,0-3.3-3.29H12.3a3.3,3.3,0,0,0-3.3,3.29v99.013a3.3,3.3,0,0,0,3.3,3.29H187.723a3.3,3.3,0,0,0,3.3-3.29V31.25Z"/>
</svg>
