<svg id="Группа_1" data-name="Группа 1" xmlns="http://www.w3.org/2000/svg" width="266" height="226" viewBox="0 0 266 226">
  <defs>
    <style>
      .cls-1, .cls-2 {
        fill: none;
        stroke: #fff;
        stroke-width: 5px;
      }

      .cls-1 {
        fill-rule: evenodd;
      }
    </style>
  </defs>
  <path id="Прямоугольник_скругл._углы_1" data-name="Прямоугольник, скругл. углы 1" class="cls-1" d="M224.165,107.12l-22.279,15.491c0.044,4.673.2,22.644-.011,25.891-0.239,3.739-31.911,23.07-51.889,36.446-7.4,4.954-12.633,6.942-17.441,7.67A15.945,15.945,0,0,1,129,193c-0.33,0-.659,0-0.987-0.012s-0.651.012-.978,0.012a17.828,17.828,0,0,1-4.045-.453c-4.685-.783-9.824-2.79-16.99-7.547-20.02-13.288-51.76-32.494-52-36.208-0.216-3.347-.043-22.432-0.006-26.185l-22.945-15.59c-5.613-3.814-5.652-9.992-.088-13.793L117.945,33.8c5.48-3.744,14.393-3.683,19.909.131l86.224,59.618C229.511,97.3,229.549,103.376,224.165,107.12Z"/>
  <path id="Прямоугольник_скругл._углы_1_копия" data-name="Прямоугольник, скругл. углы 1 копия" class="cls-1" d="M30.96,93.224L117.945,33.8c5.48-3.744,14.393-3.683,19.909.131l86.224,59.618c5.433,3.756,5.471,9.832.087,13.576L138.7,166.547c-5.466,3.8-14.379,3.843-19.906.087L31.049,107.017C25.436,103.2,25.4,97.025,30.96,93.224Z"/>
  <path id="Фигура_1" data-name="Фигура 1" class="cls-1" d="M127.581,100.647l0.662-.859,44.176,37.565-0.662.859Z"/>
  <path id="Фигура_1_копия" data-name="Фигура 1 копия" class="cls-1" d="M172.659,140.4l0.851,0.031,0.851,41.181-0.851-.03Z"/>
  <circle id="Эллипс_1" data-name="Эллипс 1" class="cls-2" cx="174" cy="196" r="11.5"/>
</svg>
