<svg xmlns="http://www.w3.org/2000/svg" width="696" height="697" viewBox="0 0 696 697">
  <defs>
    <style>
      .cls-1 {
        fill: none;
        stroke: #fff;
        stroke-width: 20px;
        fill-rule: evenodd;
      }
    </style>
  </defs>
  <path id="Фигура_1_копия_2" data-name="Фигура 1 копия 2" class="cls-1" d="M627,543H613.618c3.783,20.047,1.918,30.848,1.918,30.848S615.869,581,608.881,581H316.116c-6.985,0-6.652-7.14-6.652-7.14S307.6,563.054,311.393,543H69a10,10,0,0,1-10-10V126a10,10,0,0,1,10-10H627a10,10,0,0,1,10,10V533A10,10,0,0,1,627,543Z"/>
  <path id="Фигура_1_копия_3" data-name="Фигура 1 копия 3" class="cls-1" d="M615.536,573.848S615.869,581,608.881,581H316.116c-6.985,0-6.652-7.14-6.652-7.14S305.6,551.6,320.21,511.635s55.037-68.377,61.41-72.424,9.723-1.53,9.723-1.53l7.165,5.1a99.44,99.44,0,0,0,61.408,21v-0.085s0.4,0.028,1.143.051c0.59-.025.9-0.051,0.9-0.051v0.072c8.1,0.129,38.753-.843,64.5-21.212l7.167-5.109s3.351-2.521,9.726,1.532,46.812,32.512,61.429,72.545S615.536,573.848,615.536,573.848ZM462.484,276a82.11,82.11,0,1,1-82.39,82.109A82.251,82.251,0,0,1,462.484,276Z"/>
</svg>
